<svg width="465" height="86" viewBox="0 0 465 86" fill="none" xmlns="http://www.w3.org/2000/svg">
<path d="M424.636 56.396C422.969 58.0626 418.036 60.696 411.636 57.896C412.801 60.032 414.543 64.2607 415.557 69.396M436.636 74.896C438.236 85.296 423.636 83.5626 416.136 81.396C416.637 77.2214 416.284 73.0759 415.557 69.396M415.557 69.396C425.917 70.2293 448.336 70.296 455.136 63.896C463.636 55.896 466.136 45.896 455.136 41.896C444.136 37.896 435.136 42.396 441.636 49.396C448.136 56.396 471.136 73.896 457.136 80.896C448.922 85.003 444.329 84.1616 442.136 82.4349M442.136 82.4349C441.338 81.8072 440.858 81.0625 440.636 80.396C440.539 80.7553 440.704 81.666 442.136 82.4349Z" stroke="black" stroke-width="4"/>
<path d="M385.136 60.396C385.969 65.396 389.636 75.396 397.636 75.396C407.636 75.396 403.636 68.896 401.136 61.396C400.204 60.1539 399.08 59.1046 398.361 58.2482M398.361 58.2482C397.923 57.7257 397.636 57.275 397.636 56.896C397.636 55.896 398.235 58.1003 398.361 58.2482Z" stroke="black" stroke-width="4"/>
<path d="M387.636 67.8959C386.636 72.2293 383.036 78.7959 376.636 70.3959C372.87 65.4539 371.32 62.2841 370.786 59.8959M371.136 53.3959C370.871 55.5132 370.186 57.2103 370.786 59.8959M370.786 59.8959C370.088 62.0414 369.018 64.5419 367.635 66.7873M367.635 66.7873C369.635 58.1785 361.135 51.3959 354.135 50.8959C353.472 50.8485 352.799 50.8236 352.135 50.8305M367.635 66.7873C367.403 67.165 367.161 67.5356 366.911 67.8959M366.911 67.8959C363.221 73.215 357.664 76.3284 351.136 67.8959C350.458 67.0202 349.843 66.1876 349.289 65.396M366.911 67.8959C363.255 71.0627 354.612 74.9961 349.289 65.396M349.289 65.396C346.743 61.7588 345.465 58.9896 345.088 56.896M345.088 56.896C344.231 52.1459 348.011 50.8735 352.135 50.8305M345.088 56.896C343.604 53.4205 342.935 47.3417 352.135 50.8305" stroke="black" stroke-width="4"/>
<path d="M309.136 74.396C307.728 72.4762 305.839 69.657 304.136 66.6631M304.136 66.6631C301.403 61.8597 299.151 56.6065 300.136 53.896C302.136 48.396 323.136 38.396 318.136 63.896C317.861 64.4459 317.572 64.9447 317.271 65.396M304.136 66.6631C306.93 68.9084 313.192 71.51 317.271 65.396M304.136 66.6631C306.226 62.0741 311.779 55.396 317.271 65.396M317.271 65.396C324.226 75.2293 339.136 90.096 343.136 70.896" stroke="black" stroke-width="4"/>
<path d="M274.636 75.396C274.102 73.6335 273.458 71.152 272.909 68.396M272.909 68.396C271.745 62.5519 271.005 55.4732 272.636 51.396C275.636 43.896 279.636 51.396 281.136 54.896C282.336 57.696 287.636 67.7293 290.136 72.396C291.136 74.2293 291.536 76.196 285.136 69.396C279.636 64.396 272.183 62.396 272.909 68.396Z" stroke="black" stroke-width="4"/>
<path d="M220.636 72.8959C216.969 66.3959 209.936 50.3959 211.136 38.3959C212.636 26.8959 216.636 36.8959 217.636 39.8959C218.636 42.8959 228.636 79.896 235.136 61.896C233.636 48.396 235.636 43.3958 239.136 39.8959C242.969 36.0626 250.936 32.396 252.136 48.396C253.636 68.396 252.636 64.396 254.636 71.396C256.236 76.996 253.469 78.896 252.636 78.896" stroke="black" stroke-width="4"/>
<path d="M2 67.5C9.16667 73.1667 27.1 82.8 41.5 76C59.5 67.5 49.5 48.5 41.5 39.5C33.5 30.5 23.5 20.5 34 13C44.5 5.50003 70 -7.49997 73 17" stroke="black" stroke-width="4"/>
<path d="M71.5 67.5C73.1667 65.6667 76.5 59.8 76.5 51" stroke="black" stroke-width="4"/>
<ellipse cx="75.9999" cy="38.5" rx="1" ry="1.5" transform="rotate(-19.4442 75.9999 38.5)" fill="black"/>
<path d="M94.5004 45.5C94.6671 53.3333 93.5004 69.7 87.5004 72.5C86.0004 72.5 89.0004 64.5 96.0004 69.5C103 74.5 112 74 113.5 65" stroke="black" stroke-width="4"/>
<path d="M122.5 69.5001L123.256 67M123.256 67L129 48.0001C129.167 46.8335 129.8 45.4001 131 49.0001C132.2 52.6001 137.5 63.1667 140 68C140.667 69 141.1 69.9 137.5 65.5C133.004 64.8333 123.861 64.2 123.256 67Z" stroke="black" stroke-width="4"/>
<path d="M149 73.4999C155.5 76.1666 169 79.8999 171 73.4999C173.5 65.4999 169 59.4999 160.5 54.4999C152 49.4999 151.5 42.4999 159.5 38.9999C167.5 35.4999 189.5 30.9999 175 50.9999" stroke="black" stroke-width="4"/>
</svg>
